<svg xmlns="http://www.w3.org/2000/svg" viewBox="0 0 1200 640" fill="none" role="img" aria-labelledby="title desc">
  <title id="title">VOCO README header</title>
  <desc id="desc">Minimal VOCO banner with a microphone mark and concise Linux dictation branding.</desc>

  <rect width="1200" height="640" rx="40" fill="#0B0C12"/>
  <rect x="1" y="1" width="1198" height="638" rx="39" stroke="#23263A"/>

  <ellipse cx="188" cy="160" rx="118" ry="88" fill="#6C4CF5" opacity="0.11"/>
  <ellipse cx="188" cy="160" rx="68" ry="50" fill="#9B8BFF" opacity="0.05"/>

  <g transform="translate(64 108)">
    <rect x="0" y="0" width="84" height="84" rx="24" fill="#10131D"/>
    <rect x="1" y="1" width="82" height="82" rx="23" stroke="#2B2F46"/>
    <circle cx="42" cy="42" r="25" fill="url(#orb)"/>
    <circle cx="42" cy="42" r="24.5" stroke="#ECE8FF" stroke-opacity="0.36"/>
    <rect x="35" y="22" width="14" height="22" rx="7" fill="#FFFFFF" fill-opacity="0.92"/>
    <path d="M28 40C28 48.8366 34.7157 56 43 56C51.2843 56 58 48.8366 58 40" stroke="#FFFFFF" stroke-width="4" stroke-linecap="round" stroke-opacity="0.9"/>
    <rect x="40" y="46" width="4" height="10" rx="2" fill="#FFFFFF" fill-opacity="0.88"/>
    <rect x="32" y="62" width="20" height="4" rx="2" fill="#FFFFFF" fill-opacity="0.78"/>
  </g>

  <g transform="translate(286 156)" font-family="system-ui, -apple-system, BlinkMacSystemFont, 'Segoe UI', sans-serif">
    <text x="0" y="42" font-size="24" letter-spacing="8" fill="#A89DD8">VOCO</text>
    <text x="0" y="122" font-size="70" font-weight="700" fill="#FFFFFF">Linux dictation.</text>
    <text x="0" y="178" font-size="70" font-weight="700" fill="#FFFFFF">Local-first.</text>
    <text x="2" y="238" font-size="24" fill="#C9CCDB">Press a hotkey, speak naturally, and VOCO inserts text at the cursor.</text>
  </g>

  <path d="M286 474H956" stroke="#23263A" stroke-width="2"/>
  <path d="M286 474H470" stroke="#6C4CF5" stroke-width="2"/>

  <g transform="translate(286 500)" font-family="system-ui, -apple-system, BlinkMacSystemFont, 'Segoe UI', sans-serif">
    <text x="0" y="28" font-size="18" letter-spacing="3.5" fill="#8C90A8">TRAY-NATIVE · LOCAL ASR · WAYLAND / X11</text>
  </g>

  <defs>
    <radialGradient id="orb" cx="0" cy="0" r="1" gradientUnits="userSpaceOnUse" gradientTransform="translate(40 34) rotate(54) scale(40)">
      <stop stop-color="#FFFFFF"/>
      <stop offset="0.38" stop-color="#CFC4FF"/>
      <stop offset="1" stop-color="#6C4CF5"/>
    </radialGradient>
  </defs>
</svg>
