<svg xmlns="http://www.w3.org/2000/svg" viewBox="0 0 1200 640" fill="none" role="img" aria-labelledby="title desc">
  <title id="title">VOCO README header</title>
  <desc id="desc">A VOCO branded banner showing a microphone orb, tray-first dictation UI, and Linux-focused feature chips.</desc>

  <rect width="1200" height="640" rx="40" fill="#090A0F"/>
  <rect x="1" y="1" width="1198" height="638" rx="39" stroke="#26283A"/>

  <g opacity="0.55">
    <path d="M0 118H1200" stroke="#171927"/>
    <path d="M0 206H1200" stroke="#141623"/>
    <path d="M0 294H1200" stroke="#141623"/>
    <path d="M0 382H1200" stroke="#141623"/>
    <path d="M0 470H1200" stroke="#141623"/>
    <path d="M112 0V640" stroke="#141623"/>
    <path d="M288 0V640" stroke="#141623"/>
    <path d="M464 0V640" stroke="#141623"/>
    <path d="M640 0V640" stroke="#141623"/>
    <path d="M816 0V640" stroke="#141623"/>
    <path d="M992 0V640" stroke="#141623"/>
  </g>

  <ellipse cx="848" cy="120" rx="250" ry="130" fill="url(#haloTop)" opacity="0.26"/>
  <ellipse cx="278" cy="528" rx="290" ry="150" fill="url(#haloBottom)" opacity="0.22"/>

  <g transform="translate(76 74)">
    <rect x="0" y="0" width="116" height="116" rx="32" fill="#11121A"/>
    <rect x="1" y="1" width="114" height="114" rx="31" stroke="#2C2F42"/>
    <circle cx="58" cy="58" r="39" fill="url(#orbGlow)"/>
    <circle cx="58" cy="58" r="38.5" stroke="url(#orbRing)" stroke-opacity="0.8"/>
    <ellipse cx="45" cy="38" rx="18" ry="11" fill="#FFFFFF" opacity="0.15"/>
    <g filter="url(#softShadow)">
      <rect x="45" y="27" width="26" height="40" rx="13" fill="url(#micBody)"/>
      <rect x="55" y="67" width="6" height="16" rx="3" fill="#ECE8FF" fill-opacity="0.95"/>
      <path d="M38 53C38 65.1503 46.9543 75 58 75C69.0457 75 78 65.1503 78 53" stroke="#ECE8FF" stroke-width="5" stroke-linecap="round" stroke-opacity="0.9"/>
      <rect x="41" y="83" width="34" height="5" rx="2.5" fill="#ECE8FF" fill-opacity="0.9"/>
      <rect x="51.2" y="35" width="2" height="24" rx="1" fill="#4D34B7" fill-opacity="0.34"/>
      <rect x="57" y="35" width="2" height="24" rx="1" fill="#4D34B7" fill-opacity="0.3"/>
      <rect x="62.8" y="35" width="2" height="24" rx="1" fill="#4D34B7" fill-opacity="0.34"/>
    </g>
  </g>

  <g transform="translate(230 88)" font-family="system-ui, -apple-system, BlinkMacSystemFont, 'Segoe UI', sans-serif">
    <text x="0" y="28" font-size="19" letter-spacing="7" fill="#A9A1D2">VOCO</text>
    <text x="0" y="104" font-size="68" font-weight="700" fill="#FFFFFF">
      Speak naturally.
    </text>
    <text x="0" y="170" font-size="68" font-weight="700" fill="#FFFFFF">
      Keep Linux flow intact.
    </text>
    <text x="0" y="222" font-size="24" fill="#C8CBDB">
      Tray-first dictation with local-first transcription, explicit states,
    </text>
    <text x="0" y="258" font-size="24" fill="#C8CBDB">
      and a setup flow that stays compact instead of sprawling.
    </text>

    <g transform="translate(0 302)">
      <rect width="188" height="44" rx="22" fill="#121420"/>
      <rect x="1" y="1" width="186" height="42" rx="21" stroke="#2C2F42"/>
      <text x="22" y="28" font-size="18" font-weight="600" fill="#F4F2FF">Linux-first</text>
      <circle cx="162" cy="22" r="6" fill="#6C4CF5"/>
    </g>

    <g transform="translate(204 302)">
      <rect width="214" height="44" rx="22" fill="#121420"/>
      <rect x="1" y="1" width="212" height="42" rx="21" stroke="#2C2F42"/>
      <text x="22" y="28" font-size="18" font-weight="600" fill="#F4F2FF">Tray-native UI</text>
      <circle cx="187" cy="22" r="6" fill="#9C8BFF"/>
    </g>

    <g transform="translate(434 302)">
      <rect width="232" height="44" rx="22" fill="#121420"/>
      <rect x="1" y="1" width="230" height="42" rx="21" stroke="#2C2F42"/>
      <text x="22" y="28" font-size="18" font-weight="600" fill="#F4F2FF">Local-first ASR</text>
      <circle cx="205" cy="22" r="6" fill="#FFFFFF"/>
    </g>
  </g>

  <g transform="translate(732 178)">
    <rect width="396" height="292" rx="30" fill="#0F1119"/>
    <rect x="1" y="1" width="394" height="290" rx="29" stroke="#2D3044"/>
    <rect x="24" y="24" width="348" height="48" rx="18" fill="#151826"/>
    <rect x="25" y="25" width="346" height="46" rx="17" stroke="#31354D"/>
    <text x="46" y="54" font-family="system-ui, -apple-system, BlinkMacSystemFont, 'Segoe UI', sans-serif" font-size="18" letter-spacing="4" fill="#A9A1D2">READY</text>
    <rect x="282" y="34" width="74" height="28" rx="14" fill="#6C4CF5"/>
    <text x="305" y="53" font-family="system-ui, -apple-system, BlinkMacSystemFont, 'Segoe UI', sans-serif" font-size="14" font-weight="700" fill="#FFFFFF">Alt+D</text>

    <text x="28" y="108" font-family="system-ui, -apple-system, BlinkMacSystemFont, 'Segoe UI', sans-serif" font-size="16" letter-spacing="3" fill="#8D92AA">LIVE INPUT</text>
    <rect x="28" y="126" width="340" height="18" rx="9" fill="#181B2A"/>
    <rect x="28" y="126" width="198" height="18" rx="9" fill="url(#meterFill)"/>

    <rect x="28" y="170" width="160" height="86" rx="22" fill="#141725"/>
    <rect x="29" y="171" width="158" height="84" rx="21" stroke="#2D3044"/>
    <text x="48" y="200" font-family="system-ui, -apple-system, BlinkMacSystemFont, 'Segoe UI', sans-serif" font-size="14" letter-spacing="2.8" fill="#8D92AA">STATE</text>
    <text x="48" y="236" font-family="system-ui, -apple-system, BlinkMacSystemFont, 'Segoe UI', sans-serif" font-size="26" font-weight="700" fill="#FFFFFF">Listening</text>

    <rect x="204" y="170" width="164" height="86" rx="22" fill="#141725"/>
    <rect x="205" y="171" width="162" height="84" rx="21" stroke="#2D3044"/>
    <text x="224" y="200" font-family="system-ui, -apple-system, BlinkMacSystemFont, 'Segoe UI', sans-serif" font-size="14" letter-spacing="2.8" fill="#8D92AA">FLOW</text>
    <text x="224" y="236" font-family="system-ui, -apple-system, BlinkMacSystemFont, 'Segoe UI', sans-serif" font-size="26" font-weight="700" fill="#FFFFFF">Tray</text>

    <g transform="translate(236 211)">
      <rect width="10" height="26" rx="5" fill="#6C4CF5"/>
      <rect x="18" y="-8" width="10" height="42" rx="5" fill="#8A72FF"/>
      <rect x="36" y="-18" width="10" height="58" rx="5" fill="#B8A7FF"/>
      <rect x="54" y="-6" width="10" height="36" rx="5" fill="#FFFFFF"/>
      <rect x="72" y="-14" width="10" height="52" rx="5" fill="#8A72FF"/>
      <rect x="90" y="4" width="10" height="24" rx="5" fill="#6C4CF5"/>
    </g>

    <rect x="28" y="262" width="340" height="8" rx="4" fill="#181B2A"/>
    <rect x="28" y="262" width="104" height="8" rx="4" fill="#6C4CF5"/>
  </g>

  <defs>
    <radialGradient id="orbGlow" cx="0" cy="0" r="1" gradientUnits="userSpaceOnUse" gradientTransform="translate(45 37) rotate(52) scale(50)">
      <stop stop-color="#FFFFFF"/>
      <stop offset="0.16" stop-color="#D8CEFF"/>
      <stop offset="0.52" stop-color="#8B73FF"/>
      <stop offset="1" stop-color="#5A3FE0"/>
    </radialGradient>
    <linearGradient id="orbRing" x1="27" y1="19" x2="92" y2="97" gradientUnits="userSpaceOnUse">
      <stop stop-color="#FFFFFF"/>
      <stop offset="0.26" stop-color="#C1B4FF"/>
      <stop offset="1" stop-color="#6C4CF5"/>
    </linearGradient>
    <linearGradient id="micBody" x1="45" y1="27" x2="71" y2="67" gradientUnits="userSpaceOnUse">
      <stop stop-color="#FFFFFF"/>
      <stop offset="0.34" stop-color="#F3EEFF"/>
      <stop offset="1" stop-color="#D8CCFF"/>
    </linearGradient>
    <linearGradient id="meterFill" x1="28" y1="135" x2="226" y2="135" gradientUnits="userSpaceOnUse">
      <stop stop-color="#6C4CF5"/>
      <stop offset="0.5" stop-color="#8A72FF"/>
      <stop offset="1" stop-color="#FFFFFF"/>
    </linearGradient>
    <radialGradient id="haloTop" cx="0" cy="0" r="1" gradientUnits="userSpaceOnUse" gradientTransform="translate(848 120) rotate(90) scale(130 250)">
      <stop stop-color="#6C4CF5"/>
      <stop offset="1" stop-color="#6C4CF5" stop-opacity="0"/>
    </radialGradient>
    <radialGradient id="haloBottom" cx="0" cy="0" r="1" gradientUnits="userSpaceOnUse" gradientTransform="translate(278 528) rotate(90) scale(150 290)">
      <stop stop-color="#2D1A72"/>
      <stop offset="1" stop-color="#2D1A72" stop-opacity="0"/>
    </radialGradient>
    <filter id="softShadow" x="32" y="21" width="52" height="72" filterUnits="userSpaceOnUse" color-interpolation-filters="sRGB">
      <feFlood flood-opacity="0" result="BackgroundImageFix"/>
      <feColorMatrix in="SourceAlpha" type="matrix" values="0 0 0 0 0 0 0 0 0 0 0 0 0 0 0 0 0 0 127 0" result="hardAlpha"/>
      <feOffset dy="2"/>
      <feGaussianBlur stdDeviation="2"/>
      <feColorMatrix type="matrix" values="0 0 0 0 0.126 0 0 0 0 0.086 0 0 0 0 0.345 0 0 0 0.45 0"/>
      <feBlend mode="normal" in2="BackgroundImageFix" result="effect1_dropShadow_0_1"/>
      <feBlend mode="normal" in="SourceGraphic" in2="effect1_dropShadow_0_1" result="shape"/>
    </filter>
  </defs>
</svg>
