<svg xmlns="http://www.w3.org/2000/svg" viewBox="0 0 1200 640" fill="none" role="img" aria-labelledby="title desc">
  <title id="title">VOCO README header</title>
  <desc id="desc">Minimal VOCO banner with a microphone mark and concise Linux dictation branding.</desc>

  <rect width="1200" height="640" rx="40" fill="#0B0C12"/>
  <rect x="1" y="1" width="1198" height="638" rx="39" stroke="#23263A"/>

  <ellipse cx="166" cy="160" rx="92" ry="68" fill="#6C4CF5" opacity="0.08"/>
  <ellipse cx="166" cy="160" rx="48" ry="36" fill="#9B8BFF" opacity="0.04"/>

  <g transform="translate(48 106)">
    <rect x="0" y="0" width="80" height="80" rx="22" fill="#10131D"/>
    <rect x="1" y="1" width="78" height="78" rx="21" stroke="#2B2F46"/>
    <circle cx="40" cy="40" r="23" fill="url(#orb)"/>
    <circle cx="40" cy="40" r="22.5" stroke="#ECE8FF" stroke-opacity="0.28"/>
    <rect x="34" y="22" width="12" height="18" rx="6" fill="#FFFFFF" fill-opacity="0.9"/>
    <path d="M28 38C28 45.732 34.268 52 42 52C49.732 52 56 45.732 56 38" stroke="#FFFFFF" stroke-width="3.5" stroke-linecap="round" stroke-opacity="0.86"/>
    <rect x="38.5" y="44" width="3" height="9" rx="1.5" fill="#FFFFFF" fill-opacity="0.84"/>
    <rect x="31" y="58" width="18" height="3.5" rx="1.75" fill="#FFFFFF" fill-opacity="0.72"/>
  </g>

  <g transform="translate(312 148)" font-family="system-ui, -apple-system, BlinkMacSystemFont, 'Segoe UI', sans-serif">
    <text x="0" y="38" font-size="22" letter-spacing="8" fill="#A89DD8">VOCO</text>
    <text x="0" y="114" font-size="54" font-weight="700" fill="#FFFFFF">Voice-native interface layer.</text>
    <text x="0" y="166" font-size="54" font-weight="700" fill="#FFFFFF">Built for Linux.</text>
    <text x="2" y="224" font-size="22" fill="#C9CCDB">Local-first dictation with tray-native control and fast insertion at the cursor.</text>
  </g>

  <path d="M312 474H956" stroke="#23263A" stroke-width="2"/>
  <path d="M312 474H486" stroke="#6C4CF5" stroke-width="2"/>

  <g transform="translate(312 500)" font-family="system-ui, -apple-system, BlinkMacSystemFont, 'Segoe UI', sans-serif">
    <text x="0" y="28" font-size="18" letter-spacing="3.5" fill="#8C90A8">LOCAL FIRST · TRAY NATIVE · WAYLAND / X11</text>
  </g>

  <defs>
    <radialGradient id="orb" cx="0" cy="0" r="1" gradientUnits="userSpaceOnUse" gradientTransform="translate(40 34) rotate(54) scale(40)">
      <stop stop-color="#FFFFFF"/>
      <stop offset="0.38" stop-color="#CFC4FF"/>
      <stop offset="1" stop-color="#6C4CF5"/>
    </radialGradient>
  </defs>
</svg>
